<?xml version="1.0" standalone="no"?>
<!DOCTYPE svg PUBLIC "-//W3C//DTD SVG 20010904//EN"
 "http://www.w3.org/TR/2001/REC-SVG-20010904/DTD/svg10.dtd">
<svg version="1.0" xmlns="http://www.w3.org/2000/svg"
 width="675.000000pt" height="675.000000pt" viewBox="0 0 675.000000 675.000000"
 preserveAspectRatio="xMidYMid meet">
<metadata>
Created by potrace 1.14, written by Peter Selinger 2001-2017
</metadata>
<g transform="translate(0.000000,675.000000) scale(0.100000,-0.100000)"
fill="#000000" stroke="none">
<path d="M3260 5854 c-19 -2 -105 -9 -190 -15 -337 -23 -620 -71 -912 -155
-296 -85 -542 -191 -799 -346 l-106 -64 -50 65 c-101 135 -274 247 -448 292
-103 26 -270 35 -360 20 -138 -23 -257 -105 -317 -216 -39 -74 -68 -187 -74
-300 -15 -237 59 -439 241 -662 38 -47 76 -93 82 -102 10 -14 5 -31 -31 -101
-102 -198 -183 -449 -223 -695 -26 -160 -26 -545 1 -665 71 -325 275 -660 599
-983 l128 -128 -148 -70 c-353 -167 -543 -263 -543 -275 0 -39 41 -23 523 200
114 53 212 96 217 96 5 0 53 -34 107 -77 54 -42 139 -103 188 -136 50 -32 90
-63 90 -67 0 -5 -88 -86 -195 -181 -323 -284 -461 -412 -457 -423 9 -27 41
-12 124 57 48 41 202 174 340 295 l253 220 152 -77 c84 -43 197 -95 251 -116
68 -27 96 -43 93 -52 -3 -7 -84 -129 -179 -271 -244 -360 -417 -629 -417 -647
0 -28 28 -16 63 28 19 23 155 220 301 437 147 217 274 406 284 419 l17 23 85
-27 c271 -85 651 -134 1082 -138 183 -2 232 2 217 18 -3 2 -114 10 -248 16
-134 7 -236 16 -225 20 10 4 60 19 109 34 265 79 434 243 475 461 l14 69 13
-70 c42 -230 227 -398 522 -475 41 -11 76 -21 78 -23 2 -2 -63 -7 -144 -11
-243 -10 -343 -18 -343 -27 0 -19 89 -22 330 -11 444 20 679 52 934 128 65 19
122 31 126 27 4 -4 114 -168 245 -363 369 -548 383 -566 407 -542 13 13 -37
94 -364 581 l-237 354 107 44 c59 24 173 76 253 117 l146 74 229 -200 c442
-386 484 -419 484 -370 0 16 -204 204 -537 496 l-122 107 117 79 c64 43 153
108 197 143 75 61 82 64 105 52 39 -20 537 -249 617 -284 67 -29 108 -32 101
-7 -4 13 -238 131 -503 255 -99 47 -182 86 -185 88 -2 2 57 65 132 141 75 75
167 176 206 225 201 248 333 508 388 762 25 115 25 465 0 630 -37 245 -98 446
-208 676 l-60 126 89 110 c198 247 269 453 244 701 -19 177 -66 288 -162 377
-85 78 -195 115 -345 115 -169 0 -334 -42 -462 -118 -81 -48 -196 -152 -242
-220 l-34 -48 -122 72 c-515 307 -1037 451 -1822 504 -148 10 -217 11 -292 4z
m390 -109 c336 -37 615 -98 930 -204 489 -165 974 -418 1230 -643 384 -337
667 -856 761 -1393 30 -174 32 -421 5 -545 -70 -322 -268 -650 -581 -967
l-150 -152 -310 144 c-268 124 -310 147 -313 167 -8 67 -47 231 -74 312 -119
355 -319 607 -658 828 -165 108 -379 204 -434 196 -14 -3 19 -24 109 -70 239
-122 396 -231 568 -397 117 -113 168 -185 240 -341 57 -121 136 -333 178 -476
l32 -111 308 -144 c296 -139 307 -145 291 -163 -47 -52 -324 -246 -352 -246
-6 0 -106 82 -222 183 -116 100 -222 190 -237 199 -27 19 -61 24 -61 10 0 -12
91 -97 293 -276 93 -81 165 -152 160 -156 -27 -27 -273 -136 -415 -185 l-67
-24 -44 62 c-24 34 -68 98 -97 142 -60 92 -98 135 -117 135 -26 0 -11 -32 88
-181 55 -84 103 -158 106 -165 4 -12 -117 -45 -272 -74 -111 -21 -370 -24
-469 -6 -116 22 -261 75 -348 127 -154 91 -282 250 -294 366 l-5 48 119 73
c196 119 410 272 488 347 97 94 136 174 142 290 4 68 1 88 -19 129 -58 124
-268 290 -464 368 -69 27 -135 36 -135 19 0 -9 20 -38 103 -155 59 -81 67
-100 43 -109 -35 -14 -116 56 -248 213 -44 52 -83 95 -87 95 -5 0 -35 -34 -68
-75 -125 -157 -240 -257 -265 -232 -16 16 -1 46 62 131 61 83 80 113 80 130 0
30 -119 -5 -239 -70 -198 -106 -353 -263 -375 -378 -9 -49 11 -158 41 -221 53
-111 225 -254 561 -465 l147 -92 -2 -44 c-4 -73 -65 -181 -152 -269 -109 -110
-239 -180 -429 -232 -103 -28 -371 -31 -510 -5 -111 21 -284 65 -294 75 -4 4
39 77 96 163 108 162 127 199 104 199 -23 0 -69 -56 -168 -203 -51 -75 -98
-137 -105 -137 -23 0 -276 105 -384 159 -100 51 -103 53 -85 70 10 10 115 102
232 205 193 170 235 216 200 216 -25 0 -76 -40 -286 -223 l-214 -186 -60 37
c-99 61 -316 228 -307 236 2 2 137 66 299 141 162 76 300 143 306 149 7 6 26
61 44 121 76 261 201 549 294 680 78 109 314 308 490 414 45 27 137 77 206
112 128 64 140 85 33 54 -200 -58 -496 -249 -679 -437 -143 -147 -231 -283
-309 -479 -44 -109 -105 -329 -105 -378 0 -15 -6 -35 -12 -44 -7 -9 -149 -79
-314 -155 l-302 -139 -56 50 c-86 75 -249 258 -341 382 -245 331 -355 615
-355 914 0 468 186 987 501 1403 79 104 241 271 339 351 409 331 1195 659
1821 762 344 56 587 68 839 40z m-3155 -398 c55 -27 215 -190 253 -256 17 -30
36 -77 43 -103 l11 -49 -84 -87 c-92 -96 -224 -258 -277 -340 -18 -28 -36 -52
-40 -52 -10 1 -99 124 -131 181 -37 69 -77 207 -90 313 -19 156 12 265 101
357 69 71 126 80 214 36z m5886 23 c47 -13 123 -90 156 -159 51 -103 41 -304
-24 -484 -25 -71 -112 -215 -151 -250 -19 -18 -21 -16 -74 60 -77 109 -163
214 -258 313 -77 81 -81 87 -76 123 15 123 214 353 339 393 53 16 46 16 88 4z
m-3298 -3092 c22 -7 58 -29 80 -50 37 -35 39 -40 35 -83 -7 -61 -72 -144 -95
-121 -3 3 4 25 17 49 31 58 23 90 -30 117 -21 11 -57 20 -79 20 -51 0 -63 -20
-70 -120 l-6 -75 -27 29 c-22 23 -28 38 -28 75 0 111 41 171 118 171 24 0 63
-5 85 -12z m737 -15 c51 -47 64 -170 23 -215 -29 -32 -38 -21 -38 45 0 44 -6
72 -19 91 -17 26 -22 28 -68 24 -94 -10 -133 -71 -89 -142 25 -39 26 -46 7
-46 -21 0 -72 63 -86 105 -9 28 -9 43 0 66 23 54 107 97 192 98 39 1 54 -4 78
-26z"/>
<path d="M1250 3648 c-34 -18 -66 -69 -73 -116 -7 -39 13 -139 34 -171 9 -13
10 -13 4 4 -32 101 -25 176 22 222 22 23 30 25 79 20 32 -3 111 -29 192 -61
104 -42 130 -50 107 -32 -53 42 -27 45 98 9 28 -8 21 35 -11 67 -45 44 -117
61 -282 67 -108 3 -151 1 -170 -9z"/>
<path d="M5195 3649 c-75 -12 -132 -37 -160 -70 -28 -34 -33 -59 -11 -59 7 0
33 7 56 15 23 8 52 15 63 15 20 0 20 -1 -4 -27 -13 -15 -17 -24 -9 -21 8 4 61
25 117 48 185 74 241 76 284 8 16 -27 19 -45 16 -98 -2 -36 -7 -74 -11 -85 -3
-11 1 -4 11 15 9 19 18 62 21 96 5 78 -22 138 -73 160 -38 16 -214 18 -300 3z"/>
<path d="M1284 3561 c-35 -15 -64 -60 -64 -100 0 -91 109 -227 235 -293 77
-39 113 -50 179 -50 161 0 163 170 4 317 -79 74 -187 126 -270 131 -34 2 -73
0 -84 -5z"/>
<path d="M5300 3551 c-111 -35 -248 -150 -290 -243 -100 -220 177 -260 394
-58 99 93 140 187 112 254 -27 64 -108 82 -216 47z"/>
<path d="M1698 3423 c19 -21 49 -67 66 -103 26 -56 31 -77 31 -146 0 -90 -12
-113 -70 -139 l-30 -13 45 -1 c167 -1 192 122 63 316 -50 76 -96 123 -120 123
-18 0 -16 -5 15 -37z"/>
<path d="M4999 3410 c-60 -64 -128 -194 -136 -260 -10 -82 41 -130 139 -130
l43 0 -37 22 c-49 28 -62 62 -56 151 6 87 38 165 93 226 57 62 13 54 -46 -9z"/>
<path d="M1250 3286 c0 -2 8 -10 18 -17 15 -13 16 -12 3 4 -13 16 -21 21 -21
13z"/>
<path d="M5434 3227 c-28 -29 -79 -72 -115 -95 -70 -46 -75 -59 -6 -16 66 42
113 82 147 124 18 22 30 40 28 40 -1 -1 -26 -24 -54 -53z"/>
<path d="M1335 3195 c50 -48 138 -107 180 -120 11 -4 -4 7 -34 24 -60 34 -109
69 -162 115 -19 17 -12 9 16 -19z"/>
</g>
</svg>
